<?xml version="1.0" encoding="utf-8"?>
<!-- Generator: Adobe Illustrator 22.0.0, SVG Export Plug-In . SVG Version: 6.00 Build 0)  -->
<svg width="40px" height="40px" version="1.1" id="Capa_1" xmlns="http://www.w3.org/2000/svg" xmlns:xlink="http://www.w3.org/1999/xlink" x="0px" y="0px"
	 viewBox="0 0 40 40" style="enable-background:new 0 0 40 40;" xml:space="preserve">
<style type="text/css">
	.st0{fill:#FFFFFF;}
	.st1{fill:#495A79;}
	.st2{fill:#42516D;}
	.st3{fill:#FFDE33;}
</style>
<path d="M20,0C11.9,0,5.4,6.6,5.4,14.7c0,10.2,13.2,23.6,13.8,24.2c0.2,0.2,0.6,0.4,0.9,0.4s0.6-0.1,0.9-0.4
	c0.6-0.6,13.8-14,13.8-24.2C34.6,6.6,28.1,0,20,0z"/>
<ellipse class="st0" cx="20" cy="11.6" rx="11.7" ry="10.1"/>
<rect x="8.3" y="11.7" width="23.4" height="10.4"/>
<g>
	<path class="st1" d="M24.5,8.7l-3.1-5.3c-0.2-0.4-0.7-0.6-1.1-0.6S19.4,3,19.1,3.4L16,8.7c-0.2,0.4-0.2,0.8,0,1.2
		c0.2,0.4,0.7,0.6,1.1,0.6h6.2c0.5,0,0.9-0.2,1.1-0.6C24.7,9.5,24.7,9.1,24.5,8.7z"/>
	<path class="st2" d="M24.5,9.9c-0.2,0.4-0.7,0.6-1.1,0.6h-3.1V2.8c0.5,0,0.9,0.2,1.1,0.6l3.1,5.3C24.7,9.1,24.7,9.5,24.5,9.9z"/>
	<path class="st3" d="M24,9l-3.1-5.3c-0.1-0.2-0.4-0.3-0.7-0.3s-0.5,0.1-0.7,0.3L16.5,9c-0.1,0.2-0.1,0.5,0,0.7
		c0.1,0.2,0.4,0.4,0.7,0.4h6.2c0.3,0,0.5-0.1,0.7-0.4C24.2,9.5,24.2,9.2,24,9z"/>
	<path class="st3" d="M24,9.7c-0.1,0.2-0.4,0.4-0.7,0.4h-3.1V3.3c0.3,0,0.5,0.1,0.7,0.3L24,9C24.2,9.2,24.2,9.5,24,9.7z"/>
	<g>
		<path class="st1" d="M20.2,9.6c-0.3,0-0.5-0.2-0.5-0.5s0.2-0.5,0.5-0.5s0.5,0.2,0.5,0.5S20.5,9.6,20.2,9.6z"/>
		<path class="st1" d="M20.8,7.7c0,0.3-0.2,0.5-0.5,0.5s-0.5-0.2-0.5-0.5V5.3c0-0.3,0.2-0.5,0.5-0.5s0.5,0.2,0.5,0.5V7.7z"/>
	</g>
	<g>
		<path class="st2" d="M20.8,9.1c0-0.3-0.2-0.5-0.5-0.5v1C20.5,9.6,20.8,9.4,20.8,9.1z"/>
		<path class="st2" d="M20.8,7.7V5.3c0-0.3-0.2-0.5-0.5-0.5v3.4C20.5,8.1,20.8,7.9,20.8,7.7z"/>
	</g>
</g>
</svg>
