<?xml version="1.0" encoding="utf-8"?>
<!-- Generator: Adobe Illustrator 22.0.0, SVG Export Plug-In . SVG Version: 6.00 Build 0)  -->
<svg width="40px" height="40px" version="1.1" id="Capa_1" xmlns="http://www.w3.org/2000/svg" xmlns:xlink="http://www.w3.org/1999/xlink" x="0px" y="0px"
	 viewBox="0 0 40 40" style="enable-background:new 0 0 40 40;" xml:space="preserve">
<style type="text/css">
	.st0{fill:#FFA515;}
	.st1{fill:#FFFFFF;}
</style>
<path class="st0" d="M20,0C11.9,0,5.4,6.6,5.4,14.7c0,10.2,13.2,23.6,13.8,24.2c0.2,0.2,0.6,0.4,0.9,0.4s0.6-0.1,0.9-0.4
	c0.6-0.6,13.8-14,13.8-24.2C34.6,6.6,28.1,0,20,0z"/>
<ellipse class="st1" cx="20" cy="11.6" rx="11.7" ry="10.1"/>
<rect x="8.3" y="11.7" class="st0" width="23.4" height="10.4"/>
<g>
	<path d="M19.1,3.5h-2c-0.2,0-0.3,0.2-0.3,0.3v6.3c0,0.2,0.2,0.4,0.3,0.4h2c0.2,0,0.3-0.2,0.3-0.4V3.8C19.4,3.7,19.3,3.5,19.1,3.5z"
		/>
	<path d="M23.2,3.5h-2c-0.2,0-0.3,0.2-0.3,0.3v6.3c0,0.2,0.2,0.4,0.3,0.4h2c0.2,0,0.3-0.2,0.3-0.4V3.8C23.5,3.7,23.3,3.5,23.2,3.5z"
		/>
</g>
</svg>
