<?xml version="1.0" encoding="utf-8"?>
<!-- Generator: Adobe Illustrator 22.0.0, SVG Export Plug-In . SVG Version: 6.00 Build 0)  -->
<svg width="40px" height="40px" version="1.1" id="Capa_1" xmlns="http://www.w3.org/2000/svg" xmlns:xlink="http://www.w3.org/1999/xlink" x="0px" y="0px"
	 viewBox="0 0 578 681" style="enable-background:new 0 0 578 681;" xml:space="preserve">
<style type="text/css">
	.st0{fill:#2196F3;}
	.st1{fill:#FFFFFF;}
</style>
<path class="st0" d="M289,0C151.5,0,39.7,112.4,39.7,250.7c0,173.8,225,402.1,234.6,411.8c4.1,4.1,9.4,6.1,14.7,6.1s10.6-2,14.7-6.1
	c9.6-9.7,234.6-238,234.6-411.8C538.3,112.4,426.5,0,289,0z"/>
<ellipse class="st1" cx="289.1" cy="198.1" rx="199.5" ry="172"/>
<rect x="89.6" y="199.6" class="st0" width="399" height="177"/>
<g>
	<g>
		<path d="M307.7,170.5l61.8-57.8c9.1-8.5,9.1-22.2,0-30.7c-9-8.5-23.8-8.5-32.8,0l-45.4,42.5L245.9,82c-9.1-8.5-23.7-8.5-32.8,0
			c-4.5,4.2-6.8,9.8-6.8,15.4c0,5.6,2.3,11.1,6.8,15.4l61.8,57.8C284,179,298.6,179,307.7,170.5z"/>
	</g>
</g>
</svg>
