<?xml version="1.0" encoding="utf-8"?>
<!-- Generator: Adobe Illustrator 22.0.0, SVG Export Plug-In . SVG Version: 6.00 Build 0)  -->
<svg width="40px" height="40px" version="1.1" id="Capa_1" xmlns="http://www.w3.org/2000/svg" xmlns:xlink="http://www.w3.org/1999/xlink" x="0px" y="0px"
	 viewBox="0 0 578 681" style="enable-background:new 0 0 578 681;" xml:space="preserve">
<style type="text/css">
	.st0{fill:#2196F3;}
	.st1{fill:#FFFFFF;}
</style>
<path class="st0" d="M289,0C151.5,0,39.7,112.4,39.7,250.7c0,173.8,225,402.1,234.6,411.8c4.1,4.1,9.4,6.1,14.7,6.1s10.6-2,14.7-6.1
	c9.6-9.7,234.6-238,234.6-411.8C538.3,112.4,426.5,0,289,0z"/>
<ellipse class="st1" cx="289.1" cy="198.1" rx="199.5" ry="172"/>
<rect x="89.6" y="199.6" class="st0" width="399" height="177"/>
<g>
	<g>
		<g>
			<path d="M368.2,112.3l-47.4-37c-6.9-5.4-18.2-5.5-25.2-0.1c-7,5.4-7,14.1-0.1,19.5l34.8,27.2l-35,26.9c-7,5.4-7,14.1-0.1,19.5
				c3.5,2.7,8,4.1,12.6,4.1c4.6,0,9.1-1.3,12.6-4l47.7-36.6C375.1,126.5,375.1,117.7,368.2,112.3z"/>
		</g>
	</g>
	<g>
		<g>
			<path d="M285,112l-47.4-37c-6.9-5.4-18.2-5.5-25.2-0.1c-7,5.4-7,14.1-0.1,19.5l34.8,27.2l-35,26.9c-7,5.4-7,14.1-0.1,19.5
				c3.5,2.7,8,4.1,12.6,4.1c4.6,0,9.1-1.3,12.6-4l47.7-36.6C291.9,126.1,291.9,117.4,285,112z"/>
		</g>
	</g>
</g>
</svg>
