<?xml version="1.0" encoding="utf-8"?>
<!-- Generator: Adobe Illustrator 22.0.0, SVG Export Plug-In . SVG Version: 6.00 Build 0)  -->
<svg width="40px" height="40px" version="1.1" id="Capa_1" xmlns="http://www.w3.org/2000/svg" xmlns:xlink="http://www.w3.org/1999/xlink" x="0px" y="0px"
	 viewBox="0 0 578 681" style="enable-background:new 0 0 578 681;" xml:space="preserve">
<style type="text/css">
	.st0{fill:#2196F3;}
	.st1{fill:#FFFFFF;}
</style>
<path class="st0" d="M289,0C151.5,0,39.7,112.4,39.7,250.7c0,173.8,225,402.1,234.6,411.8c4.1,4.1,9.4,6.1,14.7,6.1s10.6-2,14.7-6.1
	c9.6-9.7,234.6-238,234.6-411.8C538.3,112.4,426.5,0,289,0z"/>
<ellipse class="st1" cx="289.1" cy="198.1" rx="199.5" ry="172"/>
<rect x="89.6" y="199.6" class="st0" width="399" height="177"/>
<g>
	<g>
		<g>
			<path d="M208.3,132.1l47.8,36.5c7,5.3,18.3,5.3,25.2-0.2c6.9-5.4,6.9-14.2-0.1-19.5L246,122.1l34.7-27.3
				c6.9-5.4,6.9-14.2-0.1-19.5c-3.5-2.7-8.1-4-12.6-4s-9.1,1.4-12.6,4.1l-47.3,37.2C201.2,118,201.3,126.8,208.3,132.1z"/>
		</g>
	</g>
	<g>
		<g>
			<path d="M291.5,131.5l47.8,36.5c7,5.3,18.3,5.3,25.2-0.2c6.9-5.4,6.9-14.2-0.1-19.5l-35.1-26.8l34.7-27.3
				c6.9-5.4,6.9-14.2-0.1-19.5c-3.5-2.7-8.1-4-12.6-4c-4.6,0-9.1,1.4-12.6,4.1L291.3,112C284.4,117.4,284.5,126.1,291.5,131.5z"/>
		</g>
	</g>
</g>
</svg>
