<?xml version="1.0" encoding="utf-8"?>
<!-- Generator: Adobe Illustrator 22.0.0, SVG Export Plug-In . SVG Version: 6.00 Build 0)  -->
<svg width="40px" height="40px" version="1.1" id="Capa_1" xmlns="http://www.w3.org/2000/svg" xmlns:xlink="http://www.w3.org/1999/xlink" x="0px" y="0px"
	 viewBox="0 0 40 40" style="enable-background:new 0 0 40 40;" xml:space="preserve">
<style type="text/css">
	.st0{fill:#FF251F;}
	.st1{fill:#FFFFFF;}
</style>
<path class="st0" d="M20,0C11.9,0,5.4,6.6,5.4,14.7c0,10.2,13.2,23.6,13.8,24.2c0.2,0.2,0.6,0.4,0.9,0.4s0.6-0.1,0.9-0.4
	c0.6-0.6,13.8-14,13.8-24.2C34.6,6.6,28.1,0,20,0z"/>
<ellipse class="st1" cx="20" cy="11.6" rx="11.7" ry="10.1"/>
<rect x="8.3" y="11.7" class="st0" width="23.4" height="10.4"/>
<g>
	<g>
		<g>
			<path d="M24.7,6.6l-2.8-2.2c-0.4-0.3-1.1-0.3-1.5,0c-0.4,0.3-0.4,0.8,0,1.1l2,1.6l-2.1,1.6c-0.4,0.3-0.4,0.8,0,1.1
				c0.2,0.2,0.5,0.2,0.7,0.2s0.5-0.1,0.7-0.2l2.8-2.1C25.1,7.4,25.1,6.9,24.7,6.6z"/>
		</g>
	</g>
	<g>
		<g>
			<path d="M19.8,6.6L17,4.4c-0.4-0.3-1.1-0.3-1.5,0c-0.4,0.3-0.4,0.8,0,1.1l2,1.6l-2.1,1.6c-0.4,0.3-0.4,0.8,0,1.1
				c0.2,0.2,0.5,0.2,0.7,0.2c0.3,0,0.5-0.1,0.7-0.2l2.8-2.1C20.2,7.4,20.2,6.9,19.8,6.6z"/>
		</g>
	</g>
</g>
</svg>
