<?xml version="1.0" encoding="utf-8"?>
<!-- Generator: Adobe Illustrator 22.0.0, SVG Export Plug-In . SVG Version: 6.00 Build 0)  -->
<svg width="40px" height="40px" version="1.1" id="Capa_1" xmlns="http://www.w3.org/2000/svg" xmlns:xlink="http://www.w3.org/1999/xlink" x="0px" y="0px"
	 viewBox="0 0 40 40" style="enable-background:new 0 0 40 40;" xml:space="preserve">
<style type="text/css">
	.st0{fill:#FF251F;}
	.st1{fill:#FFFFFF;}
</style>
<path class="st0" d="M20,0C11.9,0,5.4,6.6,5.4,14.7c0,10.2,13.2,23.6,13.8,24.2c0.2,0.2,0.6,0.4,0.9,0.4s0.6-0.1,0.9-0.4
	c0.6-0.6,13.8-14,13.8-24.2C34.6,6.6,28.1,0,20,0z"/>
<ellipse class="st1" cx="20" cy="11.6" rx="11.7" ry="10.1"/>
<rect x="8.3" y="11.7" class="st0" width="23.4" height="10.4"/>
<g>
	<g>
		<g>
			<path d="M15.3,7.8l2.8,2.1c0.4,0.3,1.1,0.3,1.5,0c0.4-0.3,0.4-0.8,0-1.1l-2.1-1.6l2-1.6c0.4-0.3,0.4-0.8,0-1.1
				c-0.2-0.2-0.5-0.2-0.7-0.2c-0.3,0-0.5,0.1-0.7,0.2l-2.8,2.2C14.8,6.9,14.8,7.4,15.3,7.8z"/>
		</g>
	</g>
	<g>
		<g>
			<path d="M20.1,7.7L23,9.9c0.4,0.3,1.1,0.3,1.5,0c0.4-0.3,0.4-0.8,0-1.1l-2.1-1.6l2-1.6c0.4-0.3,0.4-0.8,0-1.1
				c-0.2-0.2-0.5-0.2-0.7-0.2c-0.3,0-0.5,0.1-0.7,0.2l-2.8,2.2C19.7,6.9,19.7,7.4,20.1,7.7z"/>
		</g>
	</g>
</g>
</svg>
